<?xml version="1.0" encoding="UTF-8" standalone="no"?>
<!-- Created with Inkscape (http://www.inkscape.org/) -->

<svg
   xmlns:dc="http://purl.org/dc/elements/1.1/"
   xmlns:cc="http://creativecommons.org/ns#"
   xmlns:rdf="http://www.w3.org/1999/02/22-rdf-syntax-ns#"
   xmlns:svg="http://www.w3.org/2000/svg"
   xmlns="http://www.w3.org/2000/svg"
   xmlns:sodipodi="http://sodipodi.sourceforge.net/DTD/sodipodi-0.dtd"
   xmlns:inkscape="http://www.inkscape.org/namespaces/inkscape"
   version="1.1"
   id="svg2"
   xml:space="preserve"
   width="1066.6667"
   height="1066.6667"
   viewBox="0 0 1066.6667 1066.6667"
   sodipodi:docname="logo_azul.ai.svg"
   inkscape:version="0.92.1 unknown"><metadata
     id="metadata8"><rdf:RDF><cc:Work
         rdf:about=""><dc:format>image/svg+xml</dc:format><dc:type
           rdf:resource="http://purl.org/dc/dcmitype/StillImage" /><dc:title></dc:title></cc:Work></rdf:RDF></metadata><defs
     id="defs6"><clipPath
       clipPathUnits="userSpaceOnUse"
       id="clipPath18"><path
         d="M 0,0 H 800 V 800 H 0 Z"
         id="path16"
         inkscape:connector-curvature="0" /></clipPath><radialGradient
       fx="0"
       fy="0"
       cx="0"
       cy="0"
       r="1"
       gradientUnits="userSpaceOnUse"
       gradientTransform="matrix(606.15247,0,0,-606.15247,400,400)"
       spreadMethod="pad"
       id="radialGradient28"><stop
         style="stop-opacity:1;stop-color:#414042"
         offset="0"
         id="stop24" /><stop
         style="stop-opacity:1;stop-color:#231f20"
         offset="1"
         id="stop26" /></radialGradient><clipPath
       clipPathUnits="userSpaceOnUse"
       id="clipPath82"><path
         d="M 0,800 H 800 V 0 H 0 Z"
         id="path80"
         inkscape:connector-curvature="0" /></clipPath><clipPath
       clipPathUnits="userSpaceOnUse"
       id="clipPath124"><path
         d="M 0,800 H 800 V 0 H 0 Z"
         id="path122"
         inkscape:connector-curvature="0" /></clipPath><clipPath
       clipPathUnits="userSpaceOnUse"
       id="clipPath148"><path
         d="M 0,800 H 800 V 0 H 0 Z"
         id="path146"
         inkscape:connector-curvature="0" /></clipPath><clipPath
       clipPathUnits="userSpaceOnUse"
       id="clipPath186"><path
         d="M 0,800 H 800 V 0 H 0 Z"
         id="path184"
         inkscape:connector-curvature="0" /></clipPath><clipPath
       clipPathUnits="userSpaceOnUse"
       id="clipPath206"><path
         d="M 0,800 H 800 V 0 H 0 Z"
         id="path204"
         inkscape:connector-curvature="0" /></clipPath><clipPath
       clipPathUnits="userSpaceOnUse"
       id="clipPath256"><path
         d="M 0,800 H 800 V 0 H 0 Z"
         id="path254"
         inkscape:connector-curvature="0" /></clipPath><clipPath
       clipPathUnits="userSpaceOnUse"
       id="clipPath288"><path
         d="M 0,800 H 800 V 0 H 0 Z"
         id="path286"
         inkscape:connector-curvature="0" /></clipPath></defs><sodipodi:namedview
     pagecolor="#ffffff"
     bordercolor="#666666"
     borderopacity="1"
     objecttolerance="10"
     gridtolerance="10"
     guidetolerance="10"
     inkscape:pageopacity="0"
     inkscape:pageshadow="2"
     inkscape:window-width="1440"
     inkscape:window-height="843"
     id="namedview4"
     showgrid="false"
     inkscape:zoom="0.44249997"
     inkscape:cx="278.76922"
     inkscape:cy="510.85666"
     inkscape:window-x="0"
     inkscape:window-y="0"
     inkscape:window-maximized="1"
     inkscape:current-layer="g10" /><g
     id="g10"
     inkscape:groupmode="layer"
     inkscape:label="87060-OHQRIQ-956"
     transform="matrix(1.3333333,0,0,-1.3333333,0,1066.6667)"><g
       clip-path="url(#clipPath18)"
       id="g14"
       style="fill:#63b8ff;fill-opacity:1"><g
         id="g20"
         style="fill:#63b8ff;fill-opacity:1"><g
           id="g22"
           style="fill:#63b8ff;fill-opacity:1"><path
             inkscape:connector-curvature="0"
             id="path30"
             style="fill:#63b8ff;stroke:none;fill-opacity:1"
             d="M 0,0 H 800 V 800 H 0 Z" /></g></g></g><text
       transform="scale(1,-1)"
       style="font-variant:normal;font-weight:normal;font-stretch:normal;font-size:25.4659996px;font-family:Bebas;-inkscape-font-specification:Bebas;writing-mode:lr-tb;fill:#ffffff;fill-opacity:1;fill-rule:nonzero;stroke:none"
       id="text36"
       x="113.76435"
       y="-616.8241"><tspan
         x="113.76435"
         y="-616.8241"
         sodipodi:role="line"
         id="tspan34">Duchy</tspan></text>
<g
       id="g38"
       transform="translate(75.9854,656.7729)"><path
         d="m 0,0 -13.278,2.227 0.61,-88.194 68.706,-13.896 -56.393,24.861 z"
         style="fill:#ffffff;fill-opacity:1;fill-rule:nonzero;stroke:none"
         id="path40"
         inkscape:connector-curvature="0" /></g><g
       id="g42"
       transform="translate(97.2666,668.4155)"><path
         d="m 0,0 -13.836,6.4 0.675,-87.109 56.531,-26.441 -43.426,30.603 z"
         style="fill:#ffffff;fill-opacity:1;fill-rule:nonzero;stroke:none"
         id="path44"
         inkscape:connector-curvature="0" /></g><g
       id="g46"
       transform="translate(224.5811,674.8159)"><path
         d="m 0,0 -13.836,-6.4 0.056,-76.547 -43.426,-30.604 56.531,26.442 z"
         style="fill:#ffffff;fill-opacity:1;fill-rule:nonzero;stroke:none"
         id="path48"
         inkscape:connector-curvature="0" /></g><g
       id="g50"
       transform="translate(232.0264,656.7729)"><path
         d="m 0,0 0.355,-75.002 -56.393,-24.861 68.706,13.896 0.61,88.194 z"
         style="fill:#ffffff;fill-opacity:1;fill-rule:nonzero;stroke:none"
         id="path52"
         inkscape:connector-curvature="0" /></g><g
       id="g54"
       transform="translate(370.9033,550.4272)"><path
         d="M 0,0 V -36.5 L -8.75,-23 -17.5,-36.5 V 0 Z"
         style="fill:#ffffff;fill-opacity:1;fill-rule:nonzero;stroke:none"
         id="path56"
         inkscape:connector-curvature="0" /></g><g
       id="g58"
       transform="translate(353.7393,638.1772)"><path
         d="M 0,0 V 32.896 H 100.328 V 0 h 15 V 47.896 H -15 V 0 Z"
         style="fill:#ffffff;fill-opacity:1;fill-rule:nonzero;stroke:none"
         id="path60"
         inkscape:connector-curvature="0" /></g><g
       id="g62"
       transform="translate(454.0674,576.4272)"><path
         d="M 0,0 V -21.597 H -100.328 V 0 h -15 V -36.597 H 15 V 0 Z"
         style="fill:#ffffff;fill-opacity:1;fill-rule:nonzero;stroke:none"
         id="path64"
         inkscape:connector-curvature="0" /></g><text
       transform="scale(1,-1)"
       style="font-variant:normal;font-weight:normal;font-stretch:normal;font-size:25.4659996px;font-family:Bebas;-inkscape-font-specification:Bebas;writing-mode:lr-tb;fill:#ffffff;fill-opacity:1;fill-rule:nonzero;stroke:none"
       id="text70"
       x="365.58188"
       y="-605.26862"><tspan
         sodipodi:role="line"
         id="tspan68"
         x="365.58188"
         y="-605.26862">Duchy</tspan></text>
<text
       transform="scale(1,-1)"
       style="font-variant:normal;font-weight:normal;font-stretch:normal;font-size:28.59420013px;font-family:Bebas;-inkscape-font-specification:Bebas;writing-mode:lr-tb;fill:#ffffff;fill-opacity:1;fill-rule:nonzero;stroke:none"
       id="text74"
       x="598.74902"
       y="-553.12549"><tspan
         sodipodi:role="line"
         id="tspan72"
         x="598.74902"
         y="-553.12549">Duchy</tspan></text>
<g
       id="g76"><g
         id="g78"
         clip-path="url(#clipPath82)"><g
           id="g84"
           transform="translate(644.3286,653.1564)"><path
             d="m 0,0 c 13.759,13.874 33.372,19.605 46.056,21.954 v 7.625 c 0,0 -27.281,-1.744 -46.056,-19.13 -18.17,18.171 -46.06,19.13 -46.06,19.13 V 21.954 C -33.374,19.605 -13.76,13.874 0,0"
             style="fill:#ffffff;fill-opacity:1;fill-rule:nonzero;stroke:none"
             id="path86"
             inkscape:connector-curvature="0" /></g><g
           id="g88"
           transform="translate(644.3286,643.3742)"><path
             d="m 0,0 c -18.632,25.071 -58.889,26.937 -58.889,26.937 v -59.892 c 0,0 40.257,-1.866 58.889,-26.937 18.631,25.071 58.889,26.937 58.889,26.937 V 26.937 C 58.889,26.937 18.631,25.071 0,0"
             style="fill:#ffffff;fill-opacity:1;fill-rule:nonzero;stroke:none"
             id="path90"
             inkscape:connector-curvature="0" /></g><g
           id="g92"
           transform="translate(655.8376,624.2581)"><path
             d="m 0,0 v 13.728 c 0,0 13.168,13.811 37.542,15.17 V 16.179 C 37.542,16.179 20.717,16.81 0,0"
             style="fill:#ffffff;fill-opacity:1;fill-rule:nonzero;stroke:none"
             id="path94"
             inkscape:connector-curvature="0" /></g><g
           id="g96"
           transform="translate(656.3688,612.6356)"><path
             d="M 0,0 -1.061,1.305 C 19.662,18.12 36.366,17.692 37.042,17.672 l -0.063,-1.68 C 36.818,15.989 20.183,16.378 0,0"
             style="fill:#ffffff;fill-opacity:1;fill-rule:nonzero;stroke:none"
             id="path98"
             inkscape:connector-curvature="0" /></g><g
           id="g100"
           transform="translate(656.3688,603.3965)"><path
             d="M 0,0 -1.061,1.305 C 19.662,18.12 36.366,17.69 37.042,17.672 L 36.979,15.993 C 36.818,15.997 20.183,16.379 0,0"
             style="fill:#ffffff;fill-opacity:1;fill-rule:nonzero;stroke:none"
             id="path102"
             inkscape:connector-curvature="0" /></g><path
           d="m 393.412,451.361 h -25.83 v -76.13 h 25.83 z m -25.83,-91.557 h 25.83 v 8.3 h -25.83 z m 0,105.392 h 25.83 v -6.708 h -25.83 z"
           style="fill:#ffffff;fill-opacity:1;fill-rule:nonzero;stroke:none"
           id="path104"
           inkscape:connector-curvature="0" /><path
           d="m 471.387,451.361 h -25.83 v -76.13 h 25.83 z m -25.83,-91.557 h 25.83 v 8.3 h -25.83 z m 0,105.392 h 25.83 v -6.708 h -25.83 z"
           style="fill:#ffffff;fill-opacity:1;fill-rule:nonzero;stroke:none"
           id="path106"
           inkscape:connector-curvature="0" /><g
           id="g108"
           transform="translate(351.5197,375.0754)"><path
             d="M 0,0 13.612,74.903 -11.801,79.522 -25.414,4.619 Z m -26.688,-2.394 -1.484,-8.166 25.414,-4.618 1.484,8.166 z m 16.161,88.928 1.2,6.6 25.413,-4.619 -1.199,-6.6 z"
             style="fill:#ffffff;fill-opacity:1;fill-rule:nonzero;stroke:none"
             id="path110"
             inkscape:connector-curvature="0" /></g><path
           d="m 401.134,359.897 h 36.701 v 3.086 h -36.701 z m 0,59.913 h 36.701 v 5.39 h -36.701 z m 36.701,-8.306 h -36.701 v -45.602 h 36.701 z m -36.701,44.139 h 36.701 v -26.405 h -36.701 z"
           style="fill:#ffffff;fill-opacity:1;fill-rule:nonzero;stroke:none"
           id="path112"
           inkscape:connector-curvature="0" /></g></g><text
       transform="scale(1,-1)"
       style="font-variant:normal;font-weight:normal;font-stretch:normal;font-size:24.88339996px;font-family:Bebas;-inkscape-font-specification:Bebas;writing-mode:lr-tb;fill:#ffffff;fill-opacity:1;fill-rule:nonzero;stroke:none"
       id="text116"
       x="361.16309"
       y="-316.9863"><tspan
         sodipodi:role="line"
         id="tspan114"
         x="361.16309"
         y="-316.9863">Duchy</tspan></text>
<g
       id="g118"><g
         id="g120"
         clip-path="url(#clipPath124)"><path
           d="m 482.562,346.789 h -171.5 v 6.188 h 171.5 z"
           style="fill:#ffffff;fill-opacity:1;fill-rule:nonzero;stroke:none"
           id="path126"
           inkscape:connector-curvature="0" /><g
           id="g128"
           transform="translate(99.3418,455.0159)"><path
             d="m 0,0 c -0.005,0.063 -0.49,6.291 3.061,10.154 0.481,0.524 1.032,0.978 1.636,1.376 L 4.63,-103.984 c -1.696,-0.542 -3.267,-1.359 -4.678,-2.384 L 0.014,-0.309 Z m 99.262,13.567 -0.069,-116.812 -87.692,0.051 0.069,116.812 z M 9.684,-110.064 106.061,-110.12 106.137,20.434 11.1,20.49 C 11.097,20.474 11.088,20.46 11.084,20.444 5.533,20.216 1.109,18.215 -2.045,14.753 -7.257,9.032 -6.952,0.945 -6.858,-0.436 l -0.069,-119.353 c -0.006,-9.156 7.493,-16.61 16.715,-16.615 l 96.257,-0.056 0.004,6.871 -96.257,0.056 c -5.433,0.003 -9.851,4.373 -9.848,9.74 0.003,5.367 4.372,9.732 9.74,9.729"
             style="fill:#ffffff;fill-opacity:1;fill-rule:nonzero;stroke:none"
             id="path130"
             inkscape:connector-curvature="0" /></g><g
           id="g132"
           transform="translate(196.3712,332.9496)"><path
             d="M 0,0 -87.164,0.051 -87.161,4.202 0.002,4.151 Z"
             style="fill:#ffffff;fill-opacity:1;fill-rule:nonzero;stroke:none"
             id="path134"
             inkscape:connector-curvature="0" /></g></g></g><text
       transform="scale(1,-1)"
       style="font-variant:normal;font-weight:normal;font-stretch:normal;font-size:29.5678997px;font-family:Bebas;-inkscape-font-specification:Bebas;writing-mode:lr-tb;fill:#ffffff;fill-opacity:1;fill-rule:nonzero;stroke:none"
       id="text140"
       x="114.84504"
       y="-403.93524"><tspan
         sodipodi:role="line"
         id="tspan138"
         x="114.84504"
         y="-403.93524"
         style="font-size:25px">Duchy</tspan></text>
<g
       id="g142"><g
         id="g144"
         clip-path="url(#clipPath148)"><path
           d="m 188.384,361.989 h -67.928 v 8.784 h 67.928 z"
           style="fill:#ffffff;fill-opacity:1;fill-rule:nonzero;stroke:none"
           id="path150"
           inkscape:connector-curvature="0" /><g
           id="g152"
           transform="translate(124.5792,337.1113)"><path
             d="m 0,0 v -32.061 l -7.686,11.858 -7.686,-11.858 V 0 Z"
             style="fill:#ffffff;fill-opacity:1;fill-rule:nonzero;stroke:none"
             id="path154"
             inkscape:connector-curvature="0" /></g><g
           id="g156"
           transform="translate(657.1159,453.4471)"><path
             d="m 0,0 35.739,-20.006 -0.103,-68.266 11.388,-5.28 -0.49,78.15 z"
             style="fill:#ffffff;fill-opacity:1;fill-rule:nonzero;stroke:none"
             id="path158"
             inkscape:connector-curvature="0" /></g><g
           id="g160"
           transform="translate(721.2184,372.9058)"><path
             d="m 0,0 -0.437,84.123 h -56.57 l 46.423,-10.265 -0.35,-72.015 z"
             style="fill:#ffffff;fill-opacity:1;fill-rule:nonzero;stroke:none"
             id="path162"
             inkscape:connector-curvature="0" /></g><g
           id="g164"
           transform="translate(634.9807,453.4471)"><path
             d="m 0,0 -46.534,-15.402 -0.49,-78.15 11.388,5.28 -0.103,68.266 z"
             style="fill:#ffffff;fill-opacity:1;fill-rule:nonzero;stroke:none"
             id="path166"
             inkscape:connector-curvature="0" /></g><g
           id="g168"
           transform="translate(627.8851,457.0284)"><path
             d="m 0,0 h -56.57 l -0.437,-84.123 10.934,1.844 -0.35,72.015 z"
             style="fill:#ffffff;fill-opacity:1;fill-rule:nonzero;stroke:none"
             id="path170"
             inkscape:connector-curvature="0" /></g><g
           id="g172"
           transform="translate(633.4843,417.8219)"><path
             d="M 0,0 6.877,11.181 18.016,11.192 24.913,0.023 Z M 12.438,20.224 16.572,13.53 8.317,13.523 Z m 0.126,15.463 -40.931,-24.495 0.318,-75.597 27.715,21.987 -0.036,39.755 25.659,0.023 0.036,-39.669 27.852,-22.096 0.318,75.597 z"
             style="fill:#ffffff;fill-opacity:1;fill-rule:nonzero;stroke:none"
             id="path174"
             inkscape:connector-curvature="0" /></g></g></g><text
       transform="scale(1,-1)"
       style="font-variant:normal;font-weight:normal;font-stretch:normal;font-size:27.75239944px;font-family:Bebas;-inkscape-font-specification:Bebas;writing-mode:lr-tb;fill:#ffffff;fill-opacity:1;fill-rule:nonzero;stroke:none"
       id="text178"
       x="603.36432"
       y="-322.50201"><tspan
         sodipodi:role="line"
         id="tspan176"
         x="603.36432"
         y="-322.50201">Duchy</tspan></text>
<g
       id="g180"><g
         id="g182"
         clip-path="url(#clipPath186)"><g
           id="g188"
           transform="translate(56.3391,146.7918)"><path
             d="m 0,0 5.774,-3.13 6.71,3.857 -12.914,7.001 z m 0.09,-1.618 0.257,-4.632 4.022,2.312 z m 0.035,10.831 17.4,32.095 13.3,-7.21 L 13.426,2.003 Z"
             style="fill:#ffffff;fill-opacity:1;fill-rule:nonzero;stroke:none"
             id="path190"
             inkscape:connector-curvature="0" /></g><g
           id="g192"
           transform="translate(74.5948,189.6348)"><path
             d="M 0,0 C 2.003,3.694 6.621,5.066 10.315,3.063 14.01,1.06 15.381,-3.558 13.378,-7.253 Z"
             style="fill:#ffffff;fill-opacity:1;fill-rule:nonzero;stroke:none"
             id="path194"
             inkscape:connector-curvature="0" /></g></g></g><text
       transform="scale(1,-1)"
       style="font-variant:normal;font-weight:normal;font-stretch:normal;font-size:27.7507px;font-family:Bebas;-inkscape-font-specification:Bebas;writing-mode:lr-tb;fill:#ffffff;fill-opacity:1;fill-rule:nonzero;stroke:none"
       id="text198"
       x="129.418"
       y="-148.9512"><tspan
         sodipodi:role="line"
         id="tspan196"
         x="129.418"
         y="-148.9512">Duchy</tspan></text>
<g
       id="g200"><g
         id="g202"
         clip-path="url(#clipPath206)"><g
           id="g208"
           transform="translate(257.8791,180.285)"><path
             d="M 0,0 H -94.857 V -1.919 H 0 v -39.516 h -201.415 v -1.918 H 0 1.919 V -41.435 -1.919 0 Z"
             style="fill:#ffffff;fill-opacity:1;fill-rule:nonzero;stroke:none"
             id="path210"
             inkscape:connector-curvature="0" /></g><g
           id="g212"
           transform="translate(59.2798,138.8504)"><path
             d="m 0,0 c 0,-1.555 -1.261,-2.815 -2.815,-2.815 -1.555,0 -2.816,1.26 -2.816,2.815 0,1.555 1.261,2.815 2.816,2.815 C -1.261,2.815 0,1.555 0,0"
             style="fill:#ffffff;fill-opacity:1;fill-rule:nonzero;stroke:none"
             id="path214"
             inkscape:connector-curvature="0" /></g><path
           d="m 160.908,178.366 h -5.553 v 1.919 h 5.553 z"
           style="fill:#ffffff;fill-opacity:1;fill-rule:nonzero;stroke:none"
           id="path216"
           inkscape:connector-curvature="0" /><path
           d="m 153.06,178.366 h -5.553 v 1.919 h 5.553 z"
           style="fill:#ffffff;fill-opacity:1;fill-rule:nonzero;stroke:none"
           id="path218"
           inkscape:connector-curvature="0" /><path
           d="m 145.212,178.366 h -5.553 v 1.919 h 5.553 z"
           style="fill:#ffffff;fill-opacity:1;fill-rule:nonzero;stroke:none"
           id="path220"
           inkscape:connector-curvature="0" /><g
           id="g222"
           transform="translate(367.8056,162.9084)"><path
             d="m 0,0 -15.367,-3.546 0.559,-2.424 16.33,3.768 C 0.95,-1.513 0.438,-0.779 0,0"
             style="fill:#ffffff;fill-opacity:1;fill-rule:nonzero;stroke:none"
             id="path224"
             inkscape:connector-curvature="0" /></g><g
           id="g226"
           transform="translate(345.0955,164.735)"><path
             d="m 0,0 -14.292,61.934 -0.05,0.179 c -0.011,0.035 -1.136,3.607 0.416,6.342 0.21,0.371 0.47,0.71 0.769,1.024 L 2.409,2.024 C 1.492,1.478 0.686,0.789 0,0 m 21.204,82.922 -31.833,-7.346 c 0,-0.01 -0.003,-0.019 -0.003,-0.029 -3.21,-0.883 -5.523,-2.649 -6.897,-5.097 -2.27,-4.044 -0.999,-8.725 -0.758,-9.518 L -2.204,-8.765 c 1.234,-5.347 6.62,-8.686 12.005,-7.443 l 31.274,7.217 -6.078,0.046 c -2.185,0.017 -4.253,0.511 -6.12,1.365 L 8.875,-12.196 c -3.173,-0.732 -6.343,1.223 -7.066,4.357 -0.723,3.134 1.238,6.273 4.373,6.996 L 20.55,2.473 Z"
             style="fill:#ffffff;fill-opacity:1;fill-rule:nonzero;stroke:none"
             id="path228"
             inkscape:connector-curvature="0" /></g><g
           id="g230"
           transform="translate(392.2829,171.7832)"><path
             d="m 0,0 -12.027,0.092 -0.019,-2.488 12.022,-0.091 C -0.07,-1.658 -0.068,-0.827 0,0"
             style="fill:#ffffff;fill-opacity:1;fill-rule:nonzero;stroke:none"
             id="path232"
             inkscape:connector-curvature="0" /></g><g
           id="g234"
           transform="translate(374.8395,242.5514)"><path
             d="M 0,0 C -0.003,0.038 -0.267,3.772 1.877,6.072 2.168,6.384 2.5,6.654 2.864,6.89 L 2.336,-62.336 c -1.019,-0.318 -1.964,-0.801 -2.814,-1.409 l 0.485,63.56 z M 32.49,12.036 6.738,12.233 C 6.737,12.223 6.731,12.215 6.729,12.205 3.401,12.092 0.742,10.911 -1.163,8.85 -4.311,5.443 -4.162,0.595 -4.112,-0.232 l -0.545,-71.527 c -0.042,-5.487 4.421,-9.985 9.947,-10.028 l 14.537,-0.11 c -0.946,1.257 -1.705,2.648 -2.243,4.135 l -12.262,0.093 c -3.256,0.025 -5.886,2.663 -5.861,5.879 0.024,3.216 2.661,5.814 5.878,5.789 l 12.176,-0.093 z"
             style="fill:#ffffff;fill-opacity:1;fill-rule:nonzero;stroke:none"
             id="path236"
             inkscape:connector-curvature="0" /></g><g
           id="g238"
           transform="translate(414.4599,245.9842)"><path
             d="M 0,0 C 0.004,0.04 0.389,3.983 3.033,6.002 3.392,6.276 3.786,6.499 4.207,6.681 L -8.598,-65.443 c -1.119,-0.151 -2.19,-0.488 -3.184,-0.972 L -0.025,-0.194 Z M -6.114,-69.798 54.061,-80.482 68.534,1.033 9.195,11.568 C 9.191,11.559 9.184,11.551 9.18,11.541 5.689,12.013 2.705,11.251 0.353,9.438 -3.534,6.442 -4.237,1.358 -4.33,0.486 l -13.231,-74.521 c -1.015,-5.717 2.844,-11.2 8.602,-12.222 l 60.101,-10.671 0.761,4.291 -60.1,10.67 c -3.393,0.602 -5.668,3.819 -5.074,7.17 0.595,3.351 3.806,5.594 7.157,4.999"
             style="fill:#ffffff;fill-opacity:1;fill-rule:nonzero;stroke:none"
             id="path240"
             inkscape:connector-curvature="0" /></g><g
           id="g242"
           transform="translate(461.562,159.0409)"><path
             d="m 0,0 -54.423,9.662 0.46,2.592 L 0.46,2.592 Z"
             style="fill:#ffffff;fill-opacity:1;fill-rule:nonzero;stroke:none"
             id="path244"
             inkscape:connector-curvature="0" /></g></g></g><text
       transform="scale(1,-1)"
       style="font-variant:normal;font-weight:normal;font-stretch:normal;font-size:24.54380035px;font-family:Bebas;-inkscape-font-specification:Bebas;writing-mode:lr-tb;fill:#ffffff;fill-opacity:1;fill-rule:nonzero;stroke:none"
       id="text248"
       x="372.71481"
       y="-118.5381"><tspan
         sodipodi:role="line"
         id="tspan246"
         x="372.71481"
         y="-118.5381">Duchy</tspan></text>
<g
       id="g250"><g
         id="g252"
         clip-path="url(#clipPath256)"><g
           id="g258"
           transform="translate(651.4316,191.9569)"><path
             d="m 0,0 51.089,13.926 v 10.11 L -0.597,0.555 C -0.389,0.38 -0.19,0.194 0,0"
             style="fill:#ffffff;fill-opacity:1;fill-rule:nonzero;stroke:none"
             id="path260"
             inkscape:connector-curvature="0" /></g><g
           id="g262"
           transform="translate(721.677,204.4678)"><path
             d="m 0,0 -69.448,-13.465 c 0.049,-0.068 0.104,-0.132 0.151,-0.202 L 0,-10.11 Z"
             style="fill:#ffffff;fill-opacity:1;fill-rule:nonzero;stroke:none"
             id="path264"
             inkscape:connector-curvature="0" /></g><g
           id="g266"
           transform="translate(640.1716,192.5116)"><path
             d="M 0,0 -51.687,23.482 V 13.372 L -0.597,-0.555 C -0.407,-0.36 -0.208,-0.175 0,0"
             style="fill:#ffffff;fill-opacity:1;fill-rule:nonzero;stroke:none"
             id="path268"
             inkscape:connector-curvature="0" /></g><g
           id="g270"
           transform="translate(724.5081,177.5263)"><path
             d="m 0,0 v 7.022 1.609 1.626 H -70.746 V 9.396 c 0.023,-0.252 0.038,-0.507 0.038,-0.765 0,-4.582 -3.715,-8.297 -8.297,-8.297 -4.583,0 -8.297,3.715 -8.297,8.297 0,0.258 0.015,0.513 0.038,0.765 v 0.861 H -158.01 V 8.631 7.022 0 l -11.066,-7.525 H -158.01 0 11.066 Z"
             style="fill:#ffffff;fill-opacity:1;fill-rule:nonzero;stroke:none"
             id="path272"
             inkscape:connector-curvature="0" /></g><g
           id="g274"
           transform="translate(638.7766,191.0024)"><path
             d="M 0,0 -69.448,13.465 V 3.355 L -0.151,-0.201 C -0.104,-0.132 -0.049,-0.068 0,0"
             style="fill:#ffffff;fill-opacity:1;fill-rule:nonzero;stroke:none"
             id="path276"
             inkscape:connector-curvature="0" /></g></g></g><text
       transform="scale(1,-1)"
       style="font-variant:normal;font-weight:normal;font-stretch:normal;font-size:25.05340004px;font-family:Bebas;-inkscape-font-specification:Bebas;writing-mode:lr-tb;fill:#ffffff;fill-opacity:1;fill-rule:nonzero;stroke:none"
       id="text280"
       x="607.63483"
       y="-140.16209"><tspan
         sodipodi:role="line"
         id="tspan278"
         x="607.63483"
         y="-140.16209">Duchy</tspan></text>
</g></svg>