<?xml version="1.0" encoding="iso-8859-1"?>
<!-- Generator: Adobe Illustrator 19.0.0, SVG Export Plug-In . SVG Version: 6.00 Build 0)  -->
<svg version="1.1" id="Layer_1" xmlns="http://www.w3.org/2000/svg" xmlns:xlink="http://www.w3.org/1999/xlink" x="0px" y="0px"
	 viewBox="0 0 512 512" style="enable-background:new 0 0 512 512;" xml:space="preserve">
<g>
	<g>
		<g>
			<path d="M330.633,370.184c-5.316-3.422-9.481-6.093-10.496-6.707l-36.574-17.493c-7.834-3.746-12.689-11.366-12.689-19.874
				v-14.003c0-2.133,0.794-4.19,2.236-5.76c0.879-0.964,1.877-2.21,2.961-3.661c4.412-5.973,7.893-12.706,10.334-20.002
				c0.887-2.637,3.012-4.685,5.683-5.47c1.041-0.307,2.167-1.212,2.167-2.475v-14.95c0-0.828-0.521-1.451-0.956-1.826
				c-1.869-1.63-2.944-3.977-2.944-6.451v-21.606c0-0.393,0.026-0.777,0.085-1.169c0.017-0.239,0.853-8.192-4.881-14.618
				c-5.436-6.093-15.659-9.318-29.542-9.318c-14.02,0-24.286,3.277-29.688,9.472c-5.564,6.383-4.745,14.387-4.736,14.464
				c0.06,0.393,0.077,0.777,0.077,1.169v21.606c0,2.475-1.075,4.821-2.944,6.451c-0.435,0.375-0.956,0.998-0.956,1.826v14.95
				c0,1.22,1.041,1.954,1.348,2.142c1.92,1.195,3.285,3.089,3.806,5.274c3.328,13.892,12.169,24.26,12.254,24.363
				c1.34,1.553,2.091,3.55,2.091,5.589v13.662c0,8.175-4.591,15.65-11.989,19.516l-34.773,18.176
				c-2.577,1.357-6.485,3.499-10.641,5.82c19.55,13.175,42.684,21.376,67.601,22.929v35.328
				c-19.447,3.959-34.133,21.197-34.133,41.796c0,23.526,19.14,42.667,42.667,42.667c23.526,0,42.667-19.14,42.667-42.667
				c0-20.599-14.686-37.837-34.133-41.796v-35.319C288.82,390.69,311.399,382.805,330.633,370.184z"/>
			<path d="M469.333,213.334c-20.608,0-37.837,14.686-41.805,34.133h-35.43c-1.937-31.215-14.362-59.563-33.86-81.638l25.088-25.088
				c6.912,4.591,15.027,7.074,23.526,7.074c11.392,0,22.11-4.437,30.165-12.501c8.064-8.055,12.501-18.765,12.501-30.165
				c0-11.401-4.446-22.118-12.501-30.165c-8.055-8.055-18.773-12.501-30.165-12.501c-11.401,0-22.118,4.446-30.174,12.501
				c-8.055,8.055-12.493,18.765-12.493,30.165c0,8.499,2.475,16.614,7.066,23.526l-25.079,25.088
				c-22.076-19.507-50.423-31.923-81.638-33.86V84.463c19.448-3.951,34.133-21.197,34.133-41.796C298.667,19.141,279.526,0,256,0
				c-23.526,0-42.667,19.14-42.667,42.667c0,20.599,14.686,37.845,34.133,41.796v35.439c-31.215,1.937-59.563,14.353-81.638,33.86
				l-25.08-25.088c4.591-6.912,7.066-15.027,7.066-23.526c0-11.401-4.437-22.11-12.493-30.165
				c-8.055-8.055-18.773-12.501-30.174-12.501c-11.392,0-22.11,4.446-30.165,12.501c-8.055,8.047-12.501,18.765-12.501,30.165
				c0,11.401,4.446,22.118,12.501,30.165c8.055,8.064,18.773,12.501,30.165,12.501c8.499,0,16.614-2.483,23.535-7.074l25.079,25.088
				c-19.499,22.076-31.923,50.423-33.86,81.638h-35.43c-3.968-19.447-21.197-34.133-41.805-34.133C19.14,213.334,0,232.474,0,256
				c0,23.526,19.14,42.667,42.667,42.667c20.608,0,37.837-14.686,41.805-34.133h35.465c1.954,31.198,14.379,59.529,33.886,81.579
				l-25.139,25.148c-6.921-4.591-15.036-7.074-23.535-7.074c-11.392,0-22.11,4.437-30.165,12.501
				c-8.055,8.047-12.501,18.765-12.501,30.165c0,11.401,4.446,22.118,12.501,30.165c8.055,8.055,18.773,12.501,30.165,12.501
				c11.401,0,22.118-4.446,30.174-12.501s12.493-18.765,12.493-30.165c0-8.499-2.475-16.614-7.066-23.526l26.735-26.744
				c6.63-3.746,12.843-7.049,15.104-8.243l34.79-18.185c1.741-0.913,2.825-2.586,2.825-4.386v-10.692
				c-3.285-4.378-9.583-13.833-13.082-25.95c-4.07-3.703-6.409-8.858-6.409-14.387v-14.95c0-4.173,1.382-8.218,3.9-11.571v-17.903
				c-0.282-3.268-0.7-16.29,8.849-27.247c8.875-10.18,23.185-15.334,42.556-15.334c19.362,0,33.681,5.154,42.556,15.334
				c9.549,10.957,9.131,23.979,8.849,27.247v17.903c2.517,3.354,3.9,7.398,3.9,11.571v14.95c0,7.023-3.951,13.474-10.018,16.973
				c-2.91,7.603-6.767,14.694-11.511,21.12c-0.64,0.862-1.254,1.664-1.852,2.406v10.871c0,1.886,1.152,3.601,3.004,4.489
				l37.231,17.843c0.845,0.401,8.346,5.171,16.947,10.761c0.358-0.307,0.674-0.666,1.024-0.981l25.105,25.105
				c-4.591,6.912-7.066,15.027-7.066,23.526c0,11.401,4.437,22.11,12.493,30.165c8.055,8.055,18.773,12.501,30.174,12.501
				c11.392,0,22.11-4.446,30.165-12.501c8.055-8.047,12.501-18.765,12.501-30.165c0-11.401-4.437-22.11-12.501-30.165
				c-8.055-8.064-18.773-12.501-30.165-12.501c-8.499,0-16.614,2.483-23.526,7.074l-25.165-25.165
				c19.507-22.05,31.94-50.364,33.894-81.562h35.473c3.968,19.448,21.197,34.133,41.805,34.133C492.86,298.667,512,279.527,512,256
				C512,232.474,492.86,213.334,469.333,213.334z"/>
		</g>
	</g>
</g>
<g>
</g>
<g>
</g>
<g>
</g>
<g>
</g>
<g>
</g>
<g>
</g>
<g>
</g>
<g>
</g>
<g>
</g>
<g>
</g>
<g>
</g>
<g>
</g>
<g>
</g>
<g>
</g>
<g>
</g>
</svg>
